#!OML:ASF Y:\EmotionMaleHayes\Project 1\Capture day 1\Session 1\Male1.ASF
:FULLY-SPECIFIED
:DEGREES
1778
root -30.6339 17.0442 0.415014 -180.233 -256.268 -535.18
lowerback 10.7685 1.49348 1.17674
upperback 2.98879 2.21905 0.752885
thorax -2.90435 1.13482 -0.17239
lowerneck -22.3979 6.70631 10.5442
upperneck 21.8664 9.09702 -11.6221
head 11.9558 3.61318 -4.52988
rclavicle 3.43401e-014 -1.23246e-014
rhumerus -18.4636 -4.55997 -63.8006
rradius 47.8905
rwrist -10.4542
rhand -14.0617 -32.6725
rfingers 7.12502
rthumb 12.0696 -62.3044
lclavicle 3.43401e-014 -1.23246e-014
lhumerus -35.3623 8.41355 73.0409
lradius 25.0049
lwrist -11.9538
lhand -13.975 -24.2973
lfingers 7.12502
lthumb 12.1532 5.32974
rfemur 7.64343 -9.7148 11.9149
rtibia 5.99186
rfoot -21.9719 4.85163
rtoes -12.3743
lfemur 1.15037 16.6473 -12.472
ltibia 27.2413
lfoot -22.3671 6.18408
ltoes 0.810807
1779
root -30.6408 17.045 0.438573 -180.539 -256.511 -535.446
lowerback 10.8446 1.50275 1.14036
upperback 2.98405 2.23157 0.807272
thorax -2.95456 1.14112 -0.099746
lowerneck -22.4612 6.74652 10.5886
upperneck 21.8039 9.11451 -11.5948
head 11.947 3.62543 -4.52109
rclavicle -1.26228e-014 -1.98785e-015
rhumerus -18.7888 -4.52877 -64.3809
rradius 48.0018
rwrist -9.11629
rhand -13.2853 -32.0033
rfingers 7.12502
rthumb 12.8182 -61.5898
lclavicle -1.26228e-014 -1.98785e-015
lhumerus -35.5317 8.60644 73.3134
lradius 25.157
lwrist -11.7854
lhand -13.0151 -24.2178
lfingers 7.12502
lthumb 13.0787 5.35213
rfemur 7.73719 -9.88491 12.0708
rtibia 5.97125
rfoot -22.034 4.68778
rtoes -12.4942
lfemur 1.68847 16.1728 -12.6075
ltibia 26.0377
lfoot -22.5012 6.43194
ltoes 1.48356
1780
root -30.6517 17.0389 0.463029 -182.127 -256.858 -537.22
lowerback 10.7626 1.46454 1.44343
upperback 2.9396 2.21797 0.954645
thorax -2.95033 1.13304 -0.113707
lowerneck -22.5691 6.77157 10.6169
upperneck 21.7299 9.11812 -11.5958
head 11.9415 3.62514 -4.52235
rclavicle -1.22253e-014 -1.03368e-014
rhumerus -19.1988 -4.26267 -64.9265
rradius 48.2659
rwrist -8.40207
rhand -12.906 -31.3065
rfingers 7.12502
rthumb 13.1838 -60.8696
lclavicle -1.22253e-014 -1.03368e-014
lhumerus -35.6663 8.78398 73.6234
lradius 25.3097
lwrist -11.6233
lhand -12.7733 -23.982
lfingers 7.12502
lthumb 13.3117 5.57281
rfemur 7.6337 -9.89518 12.7583
rtibia 5.89374
rfoot -22.1545 4.24299
rtoes -12.6375
lfemur 1.87058 15.5196 -12.431
ltibia 25.034
lfoot -22.7946 7.06683
ltoes 0.669754
1781
root -30.6592 17.0377 0.482382 -182.453 -257.05 -537.654
lowerback 10.7248 1.51481 1.51191
upperback 2.90046 2.29227 0.99081
thorax -2.96821 1.169 -0.123844
lowerneck -22.6578 6.74694 10.6652
upperneck 21.6737 9.07238 -11.6767
head 11.9385 3.59606 -4.56797
rclavicle 1.21259e-014 -1.03368e-014
rhumerus -19.6775 -4.0361 -65.5009
rradius 48.4903
rwrist -7.63068
rhand -12.803 -30.7064
rfingers 7.12502
rthumb 13.2831 -60.2631
lclavicle 1.21259e-014 -1.03368e-014
lhumerus -35.803 8.58149 74.0964
lradius 25.5177
lwrist -11.1501
lhand -13.7148 -23.9571
lfingers 7.12502
lthumb 12.4041 5.6549
rfemur 7.56382 -9.83161 13.0124
rtibia 5.87643
rfoot -22.3024 4.10677
rtoes -12.3217
lfemur 2.24169 14.8974 -12.6559
ltibia 23.8104
lfoot -22.8831 7.76466
ltoes -0.302399
1782
root -30.6597 17.037 0.499307 -180.958 -257.201 -536.16
lowerback 10.6251 1.58458 1.15522
upperback 2.92129 2.3407 0.913293
thorax -2.90216 1.19465 -0.00672624
lowerneck -22.7236 6.7203 10.5664
upperneck 21.6084 9.03442 -11.6103
head 11.9118 3.57632 -4.53025
rclavicle 1.54555e-014 -1.39149e-014
rhumerus -20.0626 -3.76774 -66.1462
rradius 48.5745
rwrist -6.50129
rhand -12.6754 -30.3723
rfingers 7.12502
rthumb 13.4061 -59.921
lclavicle 1.54555e-014 -1.39149e-014
lhumerus -35.9028 8.45782 74.5417
lradius 25.6933
lwrist -10.7553
lhand -12.8078 -24.0328
lfingers 7.12502
lthumb 13.2784 5.5242
rfemur 7.64923 -9.91062 12.6353
rtibia 5.7764
rfoot -22.3611 4.16304
rtoes -12.1122
lfemur 2.83981 14.2692 -13.3771
ltibia 22.2106
lfoot -22.5931 8.35539
ltoes -1.49746
1783
root -30.6657 17.0332 0.519371 -180.36 -257.477 -535.514
lowerback 10.6302 1.57279 0.920392
upperback 2.9482 2.30013 0.898563
thorax -2.88587 1.17583 0.115277
lowerneck -22.7768 6.72385 10.5197
upperneck 21.5746 9.01345 -11.5033
head 11.8972 3.5734 -4.4835
rclavicle -3.37934e-015 7.95139e-016
rhumerus -20.4776 -3.28748 -66.8385
rradius 48.6344
rwrist -5.36909
rhand -12.7335 -30.1364
rfingers 7.12502
rthumb 13.3501 -59.6887
lclavicle -3.37934e-015 7.95139e-016
lhumerus -36.0061 8.59089 74.841
lradius 25.8633
lwrist -10.5591
lhand -12.3777 -24.0114
lfingers 7.12502
lthumb 13.693 5.51816
rfemur 7.81535 -10.1138 12.4617
rtibia 5.66731
rfoot -22.4203 4.12917
rtoes -11.7732
lfemur 3.3965 13.3173 -13.8897
ltibia 20.7051
lfoot -22.5452 8.72194
ltoes -1.16363
1784
root -30.6704 17.0322 0.539676 -181.815 -257.681 -536.927
lowerback 10.7129 1.56669 1.15771
upperback 2.93374 2.3236 0.994453
thorax -2.94095 1.18676 0.0755025
lowerneck -22.7889 6.68691 10.5035
upperneck 21.6098 8.95092 -11.4407
head 11.9 3.55089 -4.46918
rclavicle -6.95746e-015 3.97569e-015
rhumerus -20.9709 -3.15611 -67.5079
rradius 48.5363
rwrist -3.94799
rhand -12.1146 -29.1114
rfingers 7.12502
rthumb 13.9466 -58.6236
lclavicle -6.95746e-015 3.97569e-015
lhumerus -36.1347 8.5751 75.2022
lradius 26.0021
lwrist -10.0465
lhand -13.1801 -23.6707
lfingers 7.12502
lthumb 12.9195 5.90933
rfemur 7.97731 -10.3114 12.8448
rtibia 5.6066
rfoot -22.4649 4.14658
rtoes -11.1948
lfemur 3.99216 12.1478 -13.8791
ltibia 19.3119
lfoot -22.7391 8.89935
ltoes 0.482859
1785
root -30.6756 17.0308 0.559163 -182.792 -257.896 -537.905
lowerback 10.7817 1.58272 1.31486
upperback 2.88264 2.36636 1.065
thorax -3.02834 1.20652 0.0516682
lowerneck -22.8575 6.65377 10.3975
upperneck 21.7413 8.93733 -11.3878
head 11.9533 3.53987 -4.43612
rclavicle 1.23246e-014 1.11319e-014
rhumerus -21.5222 -3.32877 -68.1272
rradius 48.4892
rwrist -2.80688
rhand -10.4454 -27.4696
rfingers 7.12502
rthumb 15.5547 -56.864
lclavicle 1.23246e-014 1.11319e-014
lhumerus -36.3209 8.04785 75.8623
lradius 26.3122
lwrist -9.38318
lhand -12.5159 -23.1114
lfingers 7.12502
lthumb 13.5598 6.42703
rfemur 8.06428 -10.4553 13.1449
rtibia 5.52144
rfoot -22.5 4.00303
rtoes -11.1256
lfemur 4.51766 11.0926 -13.9251
ltibia 17.923
lfoot -22.5684 8.92252
ltoes 1.05387
1786
root -30.6793 17.0274 0.577595 -182.106 -258.052 -537.225
lowerback 10.7721 1.62067 1.12596
upperback 2.84339 2.39256 1.00123
thorax -3.06862 1.21922 0.0876786
lowerneck -22.635 6.59464 10.5109
upperneck 21.448 8.81822 -11.4576
head 11.7924 3.49662 -4.49898
rclavicle -2.73329e-015 -4.77083e-015
rhumerus -22.1153 -3.22665 -68.8291
rradius 48.5999
rwrist -2.42527
rhand -9.4409 -26.6317
rfingers 7.12502
rthumb 16.522 -55.9483
lclavicle -2.73329e-015 -4.77083e-015
lhumerus -36.5237 7.54921 76.3715
lradius 26.6609
lwrist -8.73777
lhand -12.8999 -23.0555
lfingers 7.12502
lthumb 13.1897 6.50725
rfemur 8.07294 -10.7108 12.9479
rtibia 5.52542
rfoot -22.5384 4.02506
rtoes -11.175
lfemur 4.94605 10.1969 -14.3687
ltibia 16.7044
lfoot -22.2505 8.68912
ltoes 1.21333
1787
root -30.6796 17.0208 0.593113 -181.745 -258.236 -536.905
lowerback 10.6942 1.63283 1.02688
upperback 2.79521 2.39398 0.964886
thorax -3.07827 1.21935 0.107026
lowerneck -22.4928 6.60413 10.3413
upperneck 21.3024 8.8034 -11.1663
head 11.6818 3.5155 -4.35902
rclavicle -1.15295e-014 -5.1684e-015
rhumerus -22.7388 -2.77 -69.5516
rradius 48.6131
rwrist -1.89566
rhand -9.76694 -26.5134
rfingers 7.12502
rthumb 16.2081 -55.8558
lclavicle -1.15295e-014 -5.1684e-015
lhumerus -36.719 7.4035 76.7688
lradius 26.8862
lwrist -8.39711
lhand -13.2004 -23.1121
lfingers 7.12502
lthumb 12.9 6.46918
rfemur 8.10926 -11.0312 12.8012
rtibia 5.50117
rfoot -22.5327 4.16465
rtoes -10.9455
lfemur 5.30964 9.21289 -14.7412
ltibia 15.7208
lfoot -21.8807 8.21443
ltoes 1.95027
1788
root -30.6796 17.0114 0.609685 -181.882 -258.505 -537.166
lowerback 10.524 1.63944 0.952909
upperback 2.73558 2.39375 1.04283
thorax -3.05298 1.21883 0.233607
lowerneck -22.4029 6.51311 10.2449
upperneck 21.2 8.68081 -11.0838
head 11.6005 3.46588 -4.3323
rclavicle 2.6339e-015 6.36111e-015
rhumerus -23.3392 -2.16205 -70.1795
rradius 48.4846
rwrist -0.912332
rhand -10.3029 -26.3842
rfingers 7.12502
rthumb 15.692 -55.7679
lclavicle 2.6339e-015 6.36111e-015
lhumerus -36.8375 7.5095 77.2355
lradius 27.0496
lwrist -8.22148
lhand -12.4116 -23.076
lfingers 7.12502
lthumb 13.6603 6.45575
rfemur 8.13578 -11.0829 12.9278
rtibia 5.35695
rfoot -22.5903 4.01282
rtoes -10.5362
lfemur 5.76762 8.24063 -14.9125
ltibia 14.4345
lfoot -21.1895 7.654
ltoes 3.47487
1789
root -30.6811 17.0066 0.62693 -181.855 -258.698 -537.241
lowerback 10.3307 1.66489 0.803542
upperback 2.74111 2.41037 1.10342
thorax -2.94957 1.22816 0.384324
lowerneck -22.462 6.47862 10.2782
upperneck 21.19 8.64144 -11.1828
head 11.6105 3.43739 -4.38209
rclavicle -3.8763e-015 -1.43125e-014
rhumerus -23.7111 -1.81051 -70.8547
rradius 48.1362
rwrist -0.00681565
rhand -10.3376 -26.3727
rfingers 7.12502
rthumb 15.6585 -55.759
lclavicle -3.8763e-015 -1.43125e-014
lhumerus -36.7709 7.3876 77.8057
lradius 27.1808
lwrist -7.70561
lhand -11.8104 -23.0954
lfingers 7.12502
lthumb 14.2397 6.39645
rfemur 8.13394 -11.0507 13.0345
rtibia 5.29112
rfoot -22.6846 3.94053
rtoes -10.0115
lfemur 6.09455 7.37292 -15.1028
ltibia 13.5051
lfoot -20.9283 6.99812
ltoes 5.34004
1790
root -30.684 17.0059 0.639056 -182.962 -258.855 -538.326
lowerback 10.3053 1.64411 0.970899
upperback 2.79561 2.40282 1.14987
thorax -2.87416 1.22515 0.341364
lowerneck -22.6013 6.50502 10.2658
upperneck 21.268 8.65456 -11.1041
head 11.6631 3.44587 -4.34801
rclavicle -1.0635e-014 1.27222e-014
rhumerus -23.9511 -1.83581 -71.625
rradius 47.5808
rwrist 0.832202
rhand -10.1583 -26.386
rfingers 7.12502
rthumb 15.8312 -55.7588
lclavicle -1.0635e-014 1.27222e-014
lhumerus -36.7005 7.04549 78.3553
lradius 27.3477
lwrist -7.14635
lhand -11.9112 -23.3182
lfingers 7.12502
lthumb 14.1426 6.18046
rfemur 8.24298 -11.2005 13.2922
rtibia 5.22764
rfoot -22.7148 4.01371
rtoes -10.0972
lfemur 5.76781 6.68262 -15.0679
ltibia 14.2159
lfoot -21.6005 6.42428
ltoes 5.76631
